# xmcd
#
# Track frame offsets: 
#        150
#        13415
#        23029
#        35483
#        51220
#        63707
#        76242
#        89783
#        101585
#        113326
#        127007
#        140167
#        153674
#        167242
#        180510
#        192693
#        203767
#        217340
#        228942
#        240911
#
# Disc length: 3374 seconds
#
# Revision: 2
# Processed by: cddbd v1.5.2PL0 Copyright (c) Steve Scherf et al.
# Submitted via: ExactAudioCopyFreeDBPlugin 1.0
#
DISCID=240d2c14
DTITLE=Magic Sam, Jimmy McCracklin - ABC Of The Blues - Vol. 27 Magic 
DTITLE=Sam, Jimmy McCracklin
DYEAR=2010
DGENRE=Blues
TTITLE0=Magic Sam - All Your Love
TTITLE1=Magic Sam - Love Me With A Feeling
TTITLE2=Magic Sam - Everything Gonna Be Alright
TTITLE3=Magic Sam - Easy Baby
TTITLE4=Magic Sam - 21 Days In Jail
TTITLE5=Jimmy McCracklin - Listen Woman
TTITLE6=Jimmy McCracklin - I Can't Understand Love
TTITLE7=Jimmy McCracklin - Josephine (Just Won't Let Her Go)
TTITLE8=Jimmy McCracklin - Love When It Rains
TTITLE9=Jimmy McCracklin - I Think My Time Is Here
TTITLE10=Jimmy McCracklin - Deceivin' Blues
TTITLE11=Jimmy McCracklin - Beer Drinkin' Woman
TTITLE12=Jimmy McCracklin - Hamburger Joint
TTITLE13=Jimmy McCracklin - Just Won't Let Her Go
TTITLE14=Jimmy McCracklin - Rockin' All Day
TTITLE15=Jimmy McCracklin - Gotta Cut Out
TTITLE16=Jimmy McCracklin - Rockin' Man
TTITLE17=Jimmy McCracklin - Looking For A Woman
TTITLE18=Jimmy McCracklin - True Love Blues
TTITLE19=Jimmy McCracklin - The Walk
EXTD=
EXTT0=
EXTT1=
EXTT2=
EXTT3=
EXTT4=
EXTT5=
EXTT6=
EXTT7=
EXTT8=
EXTT9=
EXTT10=
EXTT11=
EXTT12=
EXTT13=
EXTT14=
EXTT15=
EXTT16=
EXTT17=
EXTT18=
EXTT19=
PLAYORDER=
